{"title":"Shaft (2000) DVDrip","uid":6978664,"size":594310535,"categoryP":"video","categoryS":"movies","magnet":"?xt=urn:btih:b1da47b6cd7fbe8dcfe5b54d134a1ce0e8b48540&amp;dn=Shaft+%282000%29+DVDrip&amp;tr=udp%3A%2F%2Ftracker.openbittorrent.com%3A80&amp;tr=udp%3A%2F%2Fopen.demonii.com%3A1337&amp;tr=udp%3A%2F%2Ftracker.coppersurfer.tk%3A6969&amp;tr=udp%3A%2F%2Fexodus.desync.com%3A6969","seeders":1,"leechers":0,"uploader":"xiliaeuro","files":2,"time":1327327783,"description":"Shaft (2000)\n\n99 min  -  Action | Crime | Thriller\n\n \nIMDB Ratings: 5.9/10\n\n\nNew York City police detective John Shaft (nephew of the original 1970s detective) goes on a personal mission to make sure the son of a real estate tycoon is brought to justice after a racially-motivated murder. \n\nFormat                         : AVI\nFormat/Info                    : Audio Video Interleave\nFile size                      : 567 MiB\nDuration                       : 1h 39mn\nOverall bit rate               : 798 Kbps\nWriting library                : VirtualDub build 11759/release\n\nVideo\nID                             : 0\nFormat                         : MPEG-4 Visual\nCodec ID                       : DIV3\nCodec ID/Hint                  : DivX 3 Low\nDuration                       : 1h 39mn\nBit rate                       : 632 Kbps\nWidth                          : 640 pixels\nHeight                         : 304 pixels\nDisplay aspect ratio           : 2.2:1\nFrame rate                     : 23.976 fps\nColor space                    : YUV\nChroma subsampling             : 4:2:0\nBit depth                      : 8 bits\nCompression mode               : Lossy\nBits/(Pixel*Frame)             : 0.135\nStream size                    : 449 MiB (79%)\n\nAudio\nID                             : 1\nFormat                         : MPEG Audio\nFormat version                 : Version 1\nFormat profile                 : Layer 3\nMode                           : Joint stereo\nMode extension                 : MS Stereo\nCodec ID                       : 55\nCodec ID/Hint                  : MP3\nDuration                       : 1h 39mn\nBit rate mode                  : Constant\nBit rate                       : 160 Kbps\nChannel(s)                     : 2 channels\nSampling rate                  : 44.1 KHz\nCompression mode               : Lossy\nStream size                    : 114 MiB (20%)\nAlignment                      : Split accross interleaves\nInterleave, duration           : 150 ms (3.60 video frames)\nInterleave, preload duration   : 112 ms\n\n","torrent":{"xt":"urn:btih:b1da47b6cd7fbe8dcfe5b54d134a1ce0e8b48540","amp;dn":"Shaft+%282000%29+DVDrip","amp;tr":["udp%3A%2F%2Ftracker.openbittorrent.com%3A80","udp%3A%2F%2Fopen.demonii.com%3A1337","udp%3A%2F%2Ftracker.coppersurfer.tk%3A6969","udp%3A%2F%2Fexodus.desync.com%3A6969"],"infoHash":"b1da47b6cd7fbe8dcfe5b54d134a1ce0e8b48540","infoHashBuffer":{"type":"Buffer","data":[177,218,71,182,205,127,190,141,207,229,181,77,19,74,28,224,232,180,133,64]},"announce":[],"urlList":[]}}